<svg width="100" height="107" viewBox="0 0 100 107" fill="none" xmlns="http://www.w3.org/2000/svg">
<path fill-rule="evenodd" clip-rule="evenodd" d="M37.7528 0.216891C37.4251 0.319672 36.5027 0.852197 35.7028 1.4001C34.9028 1.948 33.5355 2.87222 32.6643 3.45391C31.7931 4.0358 30.1998 5.12351 29.1236 5.87131C28.0474 6.6189 25.4058 8.41799 23.2534 9.86928C19.1381 12.6438 18.2212 13.4766 17.6434 14.9655C17.3023 15.8442 17.2883 16.9673 17.2399 47.1113L17.19 78.3464L17.6489 79.1968C18.355 80.5051 21.2203 83.3328 22.8714 84.3509C24.999 85.663 26.8981 86.2113 29.3099 86.2094C30.7469 86.2082 31.5883 86.0992 32.478 85.7987C35.0335 84.9358 37.2889 82.9742 38.3113 80.7258L38.9072 79.4151L39.0004 42.1905L39.0936 4.9659L39.571 4.67495C40.0261 4.39756 40.2 4.47161 43.2981 6.26119C45.0855 7.29366 47.0929 8.47606 47.7591 8.8888C48.4253 9.30175 50.4594 10.5283 52.2793 11.6143C54.0991 12.7006 55.7554 13.8203 55.9598 14.1023C56.3242 14.6053 56.3314 14.9369 56.3314 31.069V47.5226L57.8409 46.4258C58.6709 45.8225 59.5095 45.274 59.7044 45.2068C60.0483 45.0884 60.0585 44.6374 60.0585 29.6572C60.0585 12.6175 60.0896 13.0996 58.8746 11.3236C58.3659 10.58 57.7423 10.1111 55.4746 8.76579C53.9472 7.85997 51.0622 6.14202 49.0636 4.9485C45.2122 2.64845 42.7886 1.22144 41.4381 0.458468C40.5529 -0.0414801 38.9169 -0.148713 37.7528 0.216891ZM42.3548 16.7698V20.5976L43.0536 21.0684C43.7131 21.5128 45.4677 22.4515 45.6386 22.4515C45.6818 22.4515 45.6945 20.699 45.6667 18.5568L45.616 14.662L44.1252 13.809C43.3052 13.34 42.5715 12.9529 42.4946 12.9491C42.4176 12.9452 42.3548 14.6646 42.3548 16.7698ZM77.11 13.0834C75.9693 13.2477 73.6503 14.2053 72.5889 14.9501C70.7508 16.2399 69.0466 18.6124 68.2181 21.0353C66.0003 27.5196 69.3126 34.9897 75.3458 37.1101C77.2468 37.7784 79.9968 37.8294 81.9199 37.2323C87.5608 35.481 91.0201 29.1164 89.7814 22.768C88.5429 16.421 83.0553 12.2268 77.11 13.0834ZM34.1552 17.2439V20.736L32.6815 21.695C31.8708 22.2223 31.114 22.6539 30.9998 22.6539C30.853 22.6539 30.8069 21.6289 30.8429 19.1637L30.8939 15.6736L32.3703 14.7126C33.1824 14.1839 33.9161 13.7515 34.0009 13.7515C34.0858 13.7515 34.1552 15.323 34.1552 17.2439ZM49.4363 20.718V24.4473L49.9488 24.8398C50.5963 25.3357 52.3432 26.2958 52.5982 26.2958C52.7236 26.2958 52.7907 25.0033 52.7907 22.5841C52.7907 19.3029 52.7528 18.8362 52.4646 18.5602C52.0816 18.1938 49.9066 16.9887 49.628 16.9887C49.5036 16.9887 49.4363 18.2978 49.4363 20.718ZM80.104 17.6113C82.9603 18.1742 85.3369 20.9248 85.8085 24.2132C86.2953 27.608 84.4968 31.149 81.5417 32.614C80.3153 33.2218 77.7373 33.2489 76.2781 32.669C74.9666 32.1478 73.1017 30.287 72.4588 28.8582C71.1211 25.8852 71.5471 22.5015 73.5654 20.069C74.6071 18.8135 75.6143 18.1282 77.0213 17.7177C78.2813 17.3501 78.7047 17.3355 80.104 17.6113ZM12.3693 19.1933C5.77477 27.0587 1.8587 36.0754 0.431964 46.6783C-0.240405 51.6744 -0.11741 58.737 0.728084 63.7077C3.07858 77.5234 10.8652 89.9895 22.1805 98.0518C31.7268 104.854 42.5725 107.812 54.2908 106.81C62.5084 106.107 71.6362 102.505 78.5077 97.2526C82.5181 94.1874 87.0079 89.5521 89.8754 85.5165C93.7931 80.0031 97.0869 72.7906 98.626 66.3564C99.7507 61.6537 100.011 59.2788 99.9997 53.8121C99.9907 49.4295 99.9352 48.527 99.5202 46.0226C98.9795 42.7603 98.8115 42.2124 98.2231 41.7948C97.2662 41.1156 86.7163 40.9747 82.2348 41.5815C71.1029 43.0886 62.4711 47.5489 56.5034 54.8772C52.8427 59.3727 51.0488 62.866 47.0767 73.2355C44.5909 79.7247 42.8691 82.9607 40.5393 85.5231C36.8784 89.5494 32.2853 91.5911 27.8659 91.1563C26.2552 90.9977 23.4921 90.0634 22.0421 89.1867C12.4575 83.392 5.29714 67.2361 5.89385 52.7511C6.24624 44.1984 8.69924 35.7804 12.8039 29.0383L14.0288 27.0261V22.3109C14.0288 19.7175 13.9567 17.5957 13.8687 17.5957C13.7808 17.5957 13.106 18.3146 12.3693 19.1933ZM26.405 21.794C26.4704 23.4355 26.4865 24.9604 26.4404 25.183C26.3944 25.4055 26.3504 25.6428 26.3426 25.7104C26.3223 25.8854 23.4414 27.712 23.1859 27.712C22.931 27.712 22.8868 21.2955 23.1386 20.8639C23.2922 20.6009 25.9259 18.8166 26.1674 18.8119C26.2326 18.8107 26.3396 20.1525 26.405 21.794ZM42.3039 29.7859C42.2223 32.4938 42.2538 33.3667 42.4448 33.6807C42.6798 34.0665 45.1423 35.6028 45.5262 35.6028C45.6395 35.6028 45.7092 34.1478 45.7092 31.781V27.9595L44.2364 27.1275C43.4265 26.6701 42.6841 26.2958 42.5866 26.2958C42.4854 26.2958 42.3641 27.7946 42.3039 29.7859ZM34.113 30.9913L34.062 34.4728L32.5711 35.4352C31.7512 35.9645 31.0175 36.4007 30.9405 36.4048C30.8636 36.4088 30.8008 34.8671 30.8008 32.9788V29.5453L31.8723 28.7967C33.0989 27.9399 33.8123 27.5127 34.0199 27.5109C34.0991 27.5103 34.141 29.0763 34.113 30.9913ZM49.519 30.3997C49.4685 30.5428 49.4501 32.2454 49.4782 34.1828L49.5295 37.7057L51.0203 38.5725C51.8403 39.0494 52.5758 39.4411 52.655 39.4431C52.7342 39.4453 52.7761 37.7496 52.7482 35.675C52.69 31.3537 52.8164 31.6619 50.6884 30.6512C49.8737 30.2642 49.5887 30.2029 49.519 30.3997ZM26.3707 32.8208C26.416 32.96 26.4145 34.5161 26.3676 36.2789L26.282 39.4844L24.8609 40.4738C24.0793 41.0178 23.335 41.4646 23.2068 41.4666C23.0298 41.4694 22.9746 40.6814 22.9767 38.1824C22.9783 36.3742 23.0411 34.7922 23.1164 34.6672C23.2573 34.4331 25.954 32.583 26.1685 32.5733C26.2345 32.5703 26.3255 32.6818 26.3707 32.8208ZM34.1552 44.77V48.2722L32.6856 49.2211C31.8773 49.7431 31.1207 50.1703 31.0041 50.1703C30.8518 50.1703 30.8064 49.19 30.8429 46.6941L30.8939 43.2179L31.8257 42.6223C32.8462 41.9698 34.0281 41.2679 34.1058 41.2679C34.133 41.2679 34.1552 42.8438 34.1552 44.77ZM26.3282 49.8599V53.3937L24.884 54.3074C24.0898 54.81 23.3274 55.2228 23.1902 55.2248C22.9876 55.2278 22.9586 54.5925 23.0361 51.8607C23.1455 47.9981 23.067 48.1885 25.0249 47.0431C25.6905 46.6538 26.2561 46.3331 26.2817 46.3307C26.3072 46.3281 26.3282 47.9163 26.3282 49.8599ZM94.9278 48.2987C95.2865 50.8825 95.2403 57.4125 94.843 60.2866C94.1295 65.4477 92.8436 69.8131 90.6018 74.6849C88.1702 79.9691 85.2222 84.1502 80.732 88.6837C75.3428 94.1247 67.9438 98.4431 60.7303 100.358C56.2073 101.559 51.314 102.048 47.1068 101.721C44.2892 101.502 41.2587 101.019 42.448 100.978C44.2476 100.916 50.2274 99.5531 53.0702 98.5562C59.6569 96.2471 67.0528 91.8111 71.3304 87.6041C77.7561 81.2842 81.5542 75.6334 84.7955 67.5703C86.1525 64.1945 88.0127 57.8945 88.011 56.6791C88.0094 55.3227 86.6628 54.0885 85.387 54.2745C84.0862 54.4638 83.4017 55.3771 82.988 57.4753C82.887 57.9877 82.4355 59.5355 81.9847 60.9148C79.2609 69.248 76.0074 75.1768 71.1172 80.7173C64.4213 88.3039 55.1855 93.4499 44.7774 95.3934C42.7543 95.7712 36.9339 96.0775 34.9938 95.9086L33.6893 95.7949L34.8074 95.4187C40.0397 93.6591 45.0694 88.992 48.1959 82.9961C48.8772 81.6895 50.1582 78.7539 51.0423 76.4727C55.5018 64.9674 56.9121 62.165 60.3645 57.9485C64.7152 52.635 71.7967 48.7155 79.5326 47.3391C83.4265 46.6463 84.2631 46.5806 89.53 46.5543L94.682 46.5284L94.9278 48.2987Z" fill="#2EA9F5"/>
</svg>
