<svg viewBox="0 0 38 38" fill="none" xmlns="http://www.w3.org/2000/svg">
<path d="M28.3862 31.0878H31.7707C32.0687 31.0928 32.3635 31.0257 32.6298 30.8919C32.8963 30.7581 33.1262 30.5618 33.3001 30.3195C33.4738 30.0775 33.5863 29.7967 33.6278 29.5016C33.6695 29.2065 33.6387 28.9056 33.5385 28.6249C32.6753 26.7773 31.3087 25.2104 29.5957 24.1042C27.8827 22.9977 25.8924 22.3965 23.8533 22.3696" stroke="currentColor" stroke-width="1.5" stroke-linecap="round" stroke-linejoin="round"/>
<path d="M23.8533 18.0025C24.6153 18.0025 25.3698 17.8525 26.0737 17.5609C26.7777 17.2692 27.4172 16.8419 27.956 16.3031C28.4948 15.7644 28.9222 15.1248 29.2138 14.4208C29.5053 13.7169 29.6554 12.9624 29.6554 12.2005C29.6575 11.4373 29.5088 10.6812 29.2181 9.97547C28.9274 9.2698 28.5004 8.6284 27.9614 8.08803C27.4224 7.54765 26.7821 7.11892 26.0772 6.8264C25.3723 6.53388 24.6166 6.3833 23.8533 6.3833" stroke="currentColor" stroke-width="1.7" stroke-linecap="round" stroke-linejoin="round"/>
<path d="M22.2064 32.9764C22.7637 32.9751 23.3099 32.8197 23.7845 32.5272C24.259 32.2348 24.6434 31.8168 24.8952 31.3196C25.1469 30.8223 25.2562 30.2649 25.2111 29.7095C25.1658 29.1539 24.9679 28.6216 24.639 28.1716C23.4854 26.6391 21.9999 25.3876 20.2937 24.511C18.5877 23.6344 16.7052 23.1553 14.7875 23.1099C12.8699 23.1553 10.9875 23.6344 9.28135 24.511C7.57521 25.3876 6.08968 26.6391 4.93612 28.1716C4.60727 28.6216 4.40929 29.1539 4.36408 29.7095C4.31888 30.2649 4.42819 30.8223 4.67996 31.3196C4.93174 31.8168 5.31614 32.2348 5.79068 32.5272C6.26521 32.8197 6.81138 32.9751 7.36876 32.9764H22.2064Z" stroke="currentColor" stroke-width="1.7" stroke-linecap="round" stroke-linejoin="round"/>
<path d="M14.7875 18.1839C16.532 18.1799 18.2039 17.484 19.436 16.249C20.6682 15.014 21.3602 13.3407 21.3602 11.5961C21.3602 9.85292 20.6677 8.18113 19.4351 6.94852C18.2024 5.71591 16.5307 5.02344 14.7875 5.02344C13.0443 5.02344 11.3725 5.71591 10.1399 6.94852C8.90733 8.18113 8.21484 9.85292 8.21484 11.5961C8.21484 13.3407 8.90684 15.014 10.139 16.249C11.3712 17.484 13.0429 18.1799 14.7875 18.1839Z" stroke="currentColor" stroke-width="1.7" stroke-linecap="round" stroke-linejoin="round"/>
</svg>
